<?xml version="1.0" standalone="no"?>
<!DOCTYPE svg PUBLIC "-//W3C//DTD SVG 20010904//EN"
 "http://www.w3.org/TR/2001/REC-SVG-20010904/DTD/svg10.dtd">
<svg version="1.0" xmlns="http://www.w3.org/2000/svg"
 width="1920.000000pt" height="1080.000000pt" viewBox="0 0 1920.000000 1080.000000"
 preserveAspectRatio="xMidYMid meet">

<g transform="translate(0.000000,1080.000000) scale(0.100000,-0.100000)"
fill="#000000" stroke="none">
<path d="M0 8686 l0 -2114 68 -16 c37 -8 425 -103 862 -210 437 -107 824 -200
860 -206 36 -7 70 -16 77 -19 7 -4 -47 -163 -168 -490 -98 -266 -179 -490
-179 -498 0 -10 -33 -13 -160 -13 -88 0 -160 2 -160 5 0 3 43 115 95 250 136
349 145 376 140 385 -8 13 -54 18 -64 6 -5 -6 -64 -154 -131 -328 l-123 -318
-37 0 c-36 0 -37 -2 -62 -64 l-26 -65 33 -13 32 -13 -24 -66 -25 -66 -39 1
c-40 1 -41 0 -65 -58 -13 -33 -24 -63 -24 -67 0 -4 14 -12 30 -18 17 -5 30
-15 30 -22 0 -10 -22 -69 -95 -254 -13 -33 -37 -96 -53 -140 -17 -44 -36 -81
-44 -83 -7 -1 -94 25 -193 58 l-179 60 -188 0 -188 0 0 -1047 c1 -744 4 -1043
11 -1030 6 10 8 21 5 24 -3 3 2 12 10 20 8 9 13 22 10 29 -3 8 -1 14 3 14 12
0 32 60 24 73 -3 6 -1 7 5 3 11 -7 16 7 15 41 -1 7 2 11 6 9 3 -2 64 140 135
315 71 175 131 317 133 315 2 -2 -3 -21 -11 -42 -72 -188 -346 -958 -344 -966
2 -6 26 44 53 110 27 67 50 120 52 118 3 -3 -10 -42 -37 -111 -4 -11 -15 -40
-25 -65 -9 -25 -22 -54 -29 -65 -8 -14 -12 -198 -14 -647 l-3 -628 101 0 100
0 0 -90 0 -90 -100 0 -100 0 0 -300 0 -300 9600 0 9600 0 0 321 0 322 -1767
-7 c-973 -3 -4398 -11 -7613 -17 -3215 -5 -6103 -11 -6418 -12 l-572 -2 0 86
0 86 407 6 c223 4 1184 7 2135 7 l1728 0 0 -35 c0 -32 2 -35 30 -35 23 0 30 5
30 19 0 54 -40 51 641 51 l629 0 0 -35 c0 -32 2 -35 30 -35 28 0 30 3 30 35
l0 35 575 0 575 0 0 -35 c0 -32 2 -35 29 -35 27 0 30 3 33 38 l3 37 588 3 587
2 0 -40 c0 -38 2 -40 30 -40 28 0 30 2 30 40 l0 40 540 0 c526 0 540 -1 540
-19 0 -37 12 -51 41 -51 27 0 29 3 27 33 l-3 32 512 3 512 2 7 -35 c5 -31 10
-35 36 -35 29 0 30 2 26 35 l-4 35 575 -2 576 -3 3 -32 c3 -30 6 -33 38 -33
34 0 35 1 29 33 l-7 34 1203 6 c2227 13 2284 12 2920 -28 305 -19 584 -37 621
-40 l68 -6 0 5035 0 5036 -4180 0 -4180 0 0 -175 0 -175 -1215 0 -1215 0 0
175 0 175 -4205 0 -4205 0 0 -2114z m10574 -795 c3 -5 8 -69 11 -142 3 -74 8
-174 11 -224 7 -125 11 -212 19 -416 l7 -176 -24 -5 c-23 -4 -25 -2 -25 41 1
25 -2 100 -6 166 -17 301 -21 384 -19 437 1 31 -2 59 -6 62 -5 3 -8 46 -6 97
2 74 6 94 21 105 15 12 16 15 3 23 -8 5 -18 7 -22 5 -10 -6 -11 20 -1 29 9 10
31 9 37 -2z m-47 -83 c-3 -8 -6 -5 -6 6 -1 11 2 17 5 13 3 -3 4 -12 1 -19z
m-16 -74 c-5 -21 -9 -30 -10 -19 -1 24 10 67 15 62 3 -2 0 -22 -5 -43z m-35
-185 c-8 -35 -14 -56 -15 -47 -1 23 20 120 25 115 2 -2 -2 -33 -10 -68z m-859
19 c-3 -7 -5 -2 -5 12 0 14 2 19 5 13 2 -7 2 -19 0 -25z m890 -80 c-3 -7 -5
-2 -5 12 0 14 2 19 5 13 2 -7 2 -19 0 -25z m-61 -99 c-8 -35 -14 -56 -15 -47
-1 23 20 120 25 115 2 -2 -2 -33 -10 -68z m51 49 c-3 -8 -6 -5 -6 6 -1 11 2
17 5 13 3 -3 4 -12 1 -19z m-10 -50 c-3 -8 -6 -5 -6 6 -1 11 2 17 5 13 3 -3 4
-12 1 -19z m-880 -10 c-3 -8 -6 -5 -6 6 -1 11 2 17 5 13 3 -3 4 -12 1 -19z
m870 -40 c-3 -8 -6 -5 -6 6 -1 11 2 17 5 13 3 -3 4 -12 1 -19z m-50 -40 c-3
-8 -6 -5 -6 6 -1 11 2 17 5 13 3 -3 4 -12 1 -19z m40 -10 c-3 -8 -6 -5 -6 6
-1 11 2 17 5 13 3 -3 4 -12 1 -19z m133 -443 c-7 -9 -15 -13 -19 -10 -3 3 1
10 9 15 21 14 24 12 10 -5z m-983 -302 c-3 -10 -5 -4 -5 12 0 17 2 24 5 18 2
-7 2 -21 0 -30z m-10 -170 c-3 -10 -5 -4 -5 12 0 17 2 24 5 18 2 -7 2 -21 0
-30z m7153 -267 c-36 -33 -311 -246 -317 -246 -5 1 6 12 22 25 17 14 25 25 19
25 -6 0 -21 -11 -34 -25 -13 -14 -20 -25 -15 -25 4 0 0 -9 -10 -20 -25 -28
-43 -25 -19 3 l19 22 -23 -19 c-12 -11 -20 -21 -17 -24 7 -7 -25 -42 -38 -42
-6 0 -3 8 6 18 10 10 15 21 11 24 -3 3 41 44 98 90 117 95 180 141 159 115
-18 -23 2 -22 22 1 10 10 14 22 10 27 -5 4 -3 5 4 1 7 -4 33 9 60 28 49 37 68
46 43 22z m-413 -304 c-10 -10 -15 -21 -12 -24 8 -7 -74 -70 -84 -64 -5 3 -15
-2 -22 -12 -13 -16 -13 -16 5 -2 11 8 17 10 13 4 -14 -23 -117 -95 -132 -92
-10 2 30 41 107 105 114 94 164 129 125 85z m-6730 -439 c-3 -10 -5 -4 -5 12
0 17 2 24 5 18 2 -7 2 -21 0 -30z m-10 -130 c-3 -10 -5 -4 -5 12 0 17 2 24 5
18 2 -7 2 -21 0 -30z m-8160 -290 c-8 -16 -17 -41 -21 -58 -13 -54 -17 -55
-182 -55 -85 0 -154 4 -154 9 0 5 7 26 16 47 9 22 20 49 25 62 8 22 12 22 169
22 l161 0 -14 -27z m-99 -272 c-1 -4 -43 -116 -91 -247 l-89 -239 -70 0 -71 0
-15 -41 -15 -42 -83 28 c-45 16 -85 26 -87 24 -3 -3 41 114 97 260 l101 266
163 0 c90 0 162 -4 160 -9z m8289 -493 c-3 -8 -6 -5 -6 6 -1 11 2 17 5 13 3
-3 4 -12 1 -19z m1068 -58 c-9 -16 -18 -30 -21 -30 -2 0 2 14 11 30 9 17 18
30 21 30 2 0 -2 -13 -11 -30z m1015 27 c0 -2 -15 -16 -32 -33 l-33 -29 29 33
c28 30 36 37 36 29z m960 -11 c0 -2 -8 -10 -17 -17 -16 -13 -17 -12 -4 4 13
16 21 21 21 13z m-3053 -58 c-3 -7 -5 -2 -5 12 0 14 2 19 5 13 2 -7 2 -19 0
-25z m3003 18 c0 -2 -8 -10 -17 -17 -16 -13 -17 -12 -4 4 13 16 21 21 21 13z
m-970 -19 c0 -2 -15 -16 -32 -33 l-33 -29 29 33 c28 30 36 37 36 29z m50 -1
c0 -2 -8 -10 -17 -17 -16 -13 -17 -12 -4 4 13 16 21 21 21 13z m-2093 -68 c-2
-13 -4 -5 -4 17 -1 22 1 32 4 23 2 -10 2 -28 0 -40z m-960 20 c-3 -8 -6 -5 -6
6 -1 11 2 17 5 13 3 -3 4 -12 1 -19z m3913 18 c0 -2 -8 -10 -17 -17 -16 -13
-17 -12 -4 4 13 16 21 21 21 13z m-980 -49 c0 -2 -12 -14 -27 -28 l-28 -24 24
28 c23 25 31 32 31 24z m50 -1 c0 -2 -8 -10 -17 -17 -16 -13 -17 -12 -4 4 13
16 21 21 21 13z m870 0 c0 -2 -8 -10 -17 -17 -16 -13 -17 -12 -4 4 13 16 21
21 21 13z m-2900 -61 c0 -19 -4 -35 -8 -35 -4 0 -6 16 -4 35 2 19 6 35 8 35 2
0 4 -16 4 -35z m2850 22 c0 -2 -10 -12 -22 -23 l-23 -19 19 23 c18 21 26 27
26 19z m-930 -30 c0 -2 -15 -16 -32 -33 l-33 -29 29 33 c28 30 36 37 36 29z
m40 -11 c0 -2 -8 -10 -17 -17 -16 -13 -17 -12 -4 4 13 16 21 21 21 13z m830
-10 c0 -2 -8 -10 -17 -17 -16 -13 -17 -12 -4 4 13 16 21 21 21 13z m-1685
-108 c-14 -24 -49 -84 -77 -135 -29 -50 -56 -89 -61 -86 -5 3 -5 8 0 12 14 10
44 61 36 61 -5 0 -3 4 3 8 7 4 29 36 49 72 52 90 65 110 71 110 3 0 -6 -19
-21 -42z m5 -78 c-6 -11 -13 -20 -16 -20 -2 0 0 9 6 20 6 11 13 20 16 20 2 0
0 -9 -6 -20z m-30 -50 c-6 -11 -13 -20 -16 -20 -2 0 0 9 6 20 6 11 13 20 16
20 2 0 0 -9 -6 -20z m107 -22 c-3 -8 -6 -5 -6 6 -1 11 2 17 5 13 3 -3 4 -12 1
-19z m-60 -20 c-3 -8 -6 -5 -6 6 -1 11 2 17 5 13 3 -3 4 -12 1 -19z m4340 12
c-16 -5 -34 -12 -41 -17 -6 -4 -3 0 7 10 11 9 29 17 41 16 17 -1 16 -2 -7 -9z
m-6700 -56 c-3 -3 -12 -4 -19 -1 -8 3 -5 6 6 6 11 1 17 -2 13 -5z m2430 -126
c-3 -8 -6 -5 -6 6 -1 11 2 17 5 13 3 -3 4 -12 1 -19z m-2182 -38 c-3 -4 4 -27
14 -51 26 -62 34 -89 24 -89 -5 0 -20 33 -32 73 -13 39 -26 79 -29 87 -5 13
-3 13 11 1 9 -7 15 -17 12 -21z m2122 -2 c-3 -7 -5 -2 -5 12 0 14 2 19 5 13 2
-7 2 -19 0 -25z m-2125 -143 c9 -20 9 -20 -6 -1 -9 11 -16 27 -15 35 0 14 1
14 6 1 3 -8 10 -24 15 -35z m2108 -18 c-59 -81 -69 -93 -67 -76 4 25 79 129
89 123 4 -3 -5 -24 -22 -47z m30 -43 c0 -8 -5 -12 -10 -9 -6 4 -8 11 -5 16 9
14 15 11 15 -7z m-2163 -76 c-3 -8 -6 -5 -6 6 -1 11 2 17 5 13 3 -3 4 -12 1
-19z m2103 8 c0 -2 -8 -10 -17 -17 -16 -13 -17 -12 -4 4 13 16 21 21 21 13z
m-3280 -51 c13 -14 20 -25 15 -25 -5 0 2 -11 15 -25 13 -14 29 -25 36 -25 19
0 81 -57 87 -80 5 -19 4 -19 -17 -2 -64 50 -176 158 -176 169 0 20 14 15 40
-12z m3198 13 c-2 -6 -10 -14 -16 -16 -7 -2 -10 2 -6 12 7 18 28 22 22 4z
m-993 -89 c-8 -46 -15 -90 -15 -96 0 -7 -5 -13 -11 -13 -6 0 -8 9 -4 20 4 11
8 35 11 53 8 68 23 131 30 124 2 -2 -3 -42 -11 -88z m-1108 49 c-3 -8 -6 -5
-6 6 -1 11 2 17 5 13 3 -3 4 -12 1 -19z m2310 -10 c-3 -8 -6 -5 -6 6 -1 11 2
17 5 13 3 -3 4 -12 1 -19z m-60 -45 c-3 -10 -5 -4 -5 12 0 17 2 24 5 18 2 -7
2 -21 0 -30z m-3322 -23 c10 -11 16 -20 13 -20 -3 0 -13 9 -23 20 -10 11 -16
20 -13 20 3 0 13 -9 23 -20z m-138 -62 c-3 -8 -6 -5 -6 6 -1 11 2 17 5 13 3
-3 4 -12 1 -19z m218 -8 c10 -11 16 -20 13 -20 -3 0 -13 9 -23 20 -10 11 -16
20 -13 20 3 0 13 -9 23 -20z m1062 -32 c-3 -7 -5 -2 -5 12 0 14 2 19 5 13 2
-7 2 -19 0 -25z m-1220 0 c-3 -8 -6 -5 -6 6 -1 11 2 17 5 13 3 -3 4 -12 1 -19z
m-4763 -345 c-47 -180 -94 -357 -103 -393 -18 -67 -39 -87 -65 -59 -8 9 -8 10
3 4 11 -6 13 -2 7 19 -4 16 -3 25 3 22 12 -8 23 37 15 61 -5 15 -4 16 6 3 9
-12 11 -10 7 12 -2 17 0 25 6 21 6 -4 7 5 3 23 -4 18 -3 24 2 16 12 -18 25 31
17 61 -4 14 -3 18 3 9 5 -8 37 82 92 263 46 151 85 273 88 271 2 -2 -36 -152
-84 -333z m5903 290 c-3 -10 -5 -4 -5 12 0 17 2 24 5 18 2 -7 2 -21 0 -30z
m2270 -25 c-3 -7 -5 -2 -5 12 0 14 2 19 5 13 2 -7 2 -19 0 -25z m-4487 -48 c0
-5 -4 -10 -8 -10 -5 0 -19 -9 -32 -20 -25 -22 -41 -22 -48 0 -3 7 0 10 7 6 6
-4 11 -3 11 2 0 10 37 30 58 31 6 1 12 -3 12 -9z m-1423 -32 c-3 -8 -6 -5 -6
6 -1 11 2 17 5 13 3 -3 4 -12 1 -19z m1323 -13 c11 -13 10 -14 -4 -9 -9 3 -16
10 -16 15 0 13 6 11 20 -6z m-30 -4 c0 -9 -73 -39 -116 -47 -15 -3 -35 -9 -46
-15 -10 -5 -23 -7 -28 -4 -6 3 -10 2 -10 -4 0 -5 -16 -15 -35 -21 -21 -7 -32
-16 -29 -22 4 -7 2 -8 -5 -4 -7 4 -56 -10 -109 -33 -140 -58 -430 -168 -472
-178 -8 -2 7 7 34 20 41 19 46 25 30 31 -10 4 -15 4 -11 0 4 -5 -13 -16 -39
-26 -26 -10 -49 -17 -51 -14 -3 2 5 7 16 11 12 3 21 10 21 14 0 14 44 27 87
26 23 0 39 3 36 8 -3 5 5 6 17 2 14 -4 20 -3 16 3 -6 10 23 26 32 17 3 -3 -1
-5 -8 -5 -7 0 -11 -2 -8 -5 9 -10 38 7 31 18 -3 6 -1 7 6 3 16 -10 51 2 47 17
-1 7 -1 9 1 5 3 -5 11 -8 19 -8 23 0 94 32 89 40 -7 11 74 40 92 33 10 -4 14
-2 10 4 -8 12 20 26 34 17 5 -3 9 -1 9 4 0 14 57 32 77 25 12 -5 14 -3 8 7 -6
10 -4 12 8 7 10 -3 17 -2 17 3 0 5 22 17 49 27 27 9 47 21 45 25 -7 11 19 6
27 -5 3 -4 28 1 55 12 59 24 54 23 54 12z m201 -8 c6 -6 -224 -100 -658 -268
-916 -354 -924 -357 -920 -362 2 -2 365 136 806 307 694 269 804 309 823 299
21 -11 21 -12 -13 -25 -554 -218 -1634 -633 -1637 -629 -3 2 0 22 5 44 8 30 7
41 -1 44 -7 3 -12 -2 -12 -12 -1 -59 -4 -71 -25 -71 -18 0 -20 4 -14 33 6 31
6 32 -7 7 -12 -21 -148 -77 -923 -378 -501 -194 -920 -355 -932 -358 -18 -5
-23 -2 -23 14 0 16 17 27 85 53 47 17 85 36 85 41 0 5 -10 6 -22 2 -33 -10
-19 1 24 19 31 13 36 13 31 1 -3 -8 -10 -14 -16 -14 -6 0 -8 -2 -5 -5 9 -9 68
17 62 27 -4 6 2 8 16 3 17 -5 21 -4 15 6 -6 9 -3 11 10 5 15 -5 16 -4 5 9 -8
9 -8 15 -2 15 6 0 14 -4 17 -10 3 -5 12 -10 18 -9 8 0 7 2 -1 6 -17 6 49 48
117 73 25 10 87 34 136 53 225 87 367 141 455 172 113 39 389 145 455 174 26
12 55 21 64 21 9 0 22 5 28 11 6 6 19 12 29 14 11 2 20 4 22 5 1 2 5 3 10 5
11 3 39 14 127 50 85 35 152 54 125 35 -9 -6 -10 -10 -3 -10 7 0 23 10 37 23
75 67 86 75 86 64 0 -7 7 -3 15 7 8 11 15 14 15 8 0 -7 5 -12 11 -12 5 0 8 4
5 9 -4 5 4 7 16 4 19 -4 21 -3 8 7 -13 10 -12 11 4 6 25 -8 58 3 50 16 -4 7
-2 8 4 4 15 -9 75 22 67 34 -3 6 1 7 9 4 21 -8 274 80 541 188 121 49 270 107
330 129 61 22 139 53 174 69 72 34 71 34 71 19 0 -5 -4 -7 -10 -4 -5 3 -10 2
-10 -3 0 -6 11 -9 25 -8 28 1 30 6 13 26 -7 8 -3 6 10 -4 14 -13 22 -15 22 -6
0 7 7 10 15 6 8 -3 15 -1 15 4 0 5 7 6 17 3 12 -5 14 -3 8 7 -6 10 -4 12 8 7
10 -3 17 -3 17 2 0 11 59 6 71 -6z m-1541 -247 c-34 -200 -51 -259 -68 -242
-2 2 18 102 44 222 26 121 50 233 53 249 2 17 6 23 8 15 2 -8 -15 -118 -37
-244z m3757 212 c-3 -8 -6 -5 -6 6 -1 11 2 17 5 13 3 -3 4 -12 1 -19z m4320 0
c-3 -8 -6 -5 -6 6 -1 11 2 17 5 13 3 -3 4 -12 1 -19z m1179 -228 c26 -137 52
-244 56 -237 4 7 5 -6 2 -28 -4 -30 -3 -36 5 -25 8 11 9 5 4 -24 -4 -28 -3
-37 5 -32 8 5 10 -2 5 -25 -4 -23 -3 -30 5 -25 8 5 10 -2 6 -24 -4 -19 -2 -30
5 -30 7 0 9 -9 5 -25 -3 -14 -2 -25 4 -25 5 0 10 -10 10 -22 0 -13 3 -34 6
-48 3 -14 37 -194 75 -400 38 -206 72 -387 75 -402 5 -25 2 -28 -19 -28 -14 0
-25 5 -25 10 0 6 -6 10 -14 10 -10 0 -18 19 -25 53 -32 158 -191 1061 -189
1069 2 5 19 -68 37 -162 19 -94 35 -169 38 -167 2 2 -26 186 -62 409 -36 222
-65 410 -65 416 0 37 11 -13 56 -238z m-7596 210 c12 -7 10 -11 -10 -18 -14
-6 -836 -325 -1827 -711 -991 -385 -1804 -701 -1807 -701 -3 0 -6 8 -6 18 0
15 316 141 1803 719 991 386 1809 702 1817 702 8 0 22 -3 30 -9z m809 -311
c-12 -156 -23 -345 -24 -419 -1 -152 -66 -881 -75 -854 -6 16 -7 16 -14 -1 -5
-15 -9 -16 -15 -6 -5 7 -12 12 -17 11 -5 0 -10 7 -12 17 -6 36 68 757 79 770
7 8 9 38 6 80 -3 38 -2 52 1 33 6 -28 10 -11 19 80 29 273 68 591 71 582 2 -6
-7 -138 -19 -293z m3498 254 c-3 -10 -5 -2 -5 17 0 19 2 27 5 18 2 -10 2 -26
0 -35z m2174 -316 c9 -57 16 -82 20 -70 4 10 5 -7 2 -37 -3 -37 -1 -51 5 -41
7 9 8 -2 5 -35 -3 -37 -2 -45 6 -34 9 11 10 4 5 -29 -5 -34 -4 -42 5 -36 9 5
11 -2 7 -29 -3 -21 -2 -36 4 -36 5 0 9 -10 9 -22 0 -13 25 -203 56 -423 32
-232 53 -411 49 -425 -6 -21 -8 -22 -12 -6 -2 11 -7 14 -11 8 -4 -7 -12 -6
-25 3 -16 12 -28 87 -87 527 -38 282 -67 518 -65 523 1 6 11 -46 22 -115 32
-211 27 -100 -10 210 -46 394 -52 474 -21 295 13 -77 30 -180 36 -228z m-6396
333 l40 -18 -35 -15 c-19 -8 -436 -171 -927 -363 -491 -191 -890 -350 -888
-352 2 -2 420 158 928 357 508 198 932 361 942 361 39 0 -9 -27 -135 -74 -69
-27 -138 -54 -155 -61 -16 -7 -361 -142 -765 -300 -404 -158 -818 -320 -920
-360 -102 -40 -275 -107 -385 -150 -110 -42 -213 -83 -230 -90 -16 -7 -131
-52 -255 -100 -124 -48 -238 -93 -255 -100 -16 -7 -79 -32 -140 -55 -60 -23
-119 -46 -130 -51 -11 -5 -111 -44 -222 -88 -163 -63 -203 -76 -203 -62 0 12
226 104 948 385 521 203 952 374 957 379 13 13 113 51 -956 -367 -516 -201
-940 -366 -943 -366 -3 0 -6 8 -6 18 0 13 28 27 108 58 375 142 3611 1409
3607 1412 -2 2 -102 -34 -222 -81 -120 -47 -947 -370 -1838 -717 -891 -348
-1628 -635 -1637 -637 -13 -4 -18 0 -18 13 0 16 79 50 438 189 240 93 1063
413 1827 711 765 298 1399 542 1410 542 11 0 38 -8 60 -18z m5322 -12 c-3 -8
-6 -5 -6 6 -1 11 2 17 5 13 3 -3 4 -12 1 -19z m-11665 -20 c-8 -8 -9 -4 -5 13
4 13 8 18 11 10 2 -7 -1 -18 -6 -23z m10639 -493 c7 -124 16 -200 20 -185 5
17 7 5 6 -35 -1 -54 24 -525 38 -718 4 -59 3 -77 -7 -75 -7 2 -16 8 -20 13 -4
6 -8 1 -8 -10 0 -17 -2 -17 -10 -5 -8 13 -10 12 -10 -4 0 -11 -2 -17 -5 -14
-3 3 -12 142 -20 309 -8 167 -17 347 -19 399 -4 65 -2 87 4 70 6 -16 8 33 5
145 -3 94 -7 271 -9 395 l-5 225 13 -150 c8 -82 20 -244 27 -360z m-1157 -685
c2 -217 1 -377 -1 -356 -3 29 -7 36 -14 25 -6 -10 -9 -11 -9 -1 0 7 -4 10 -10
7 -5 -3 -10 0 -11 7 0 7 -4 4 -9 -7 -5 -12 -8 166 -8 420 0 242 4 429 8 415 4
-14 8 92 9 240 1 146 4 303 9 350 10 116 32 -564 36 -1100z m2237 765 c9 -86
15 -122 20 -105 4 14 5 -4 2 -40 -3 -49 -2 -61 6 -50 9 11 10 2 5 -39 -4 -31
-3 -56 3 -60 5 -3 24 -163 42 -356 18 -192 35 -374 38 -403 6 -51 5 -52 -18
-50 -13 2 -27 8 -31 13 -4 6 -8 -6 -9 -25 -2 -41 -16 100 -53 505 -14 160 -29
310 -32 335 -8 62 3 46 15 -21 9 -50 9 -48 5 26 -3 44 -14 197 -24 340 -11
143 -19 280 -19 305 1 48 29 -160 50 -375z m-3406 -122 c-3 -285 -9 -603 -15
-708 -5 -104 -9 -207 -10 -228 0 -23 -4 -36 -10 -32 -5 3 -10 0 -11 -7 0 -10
-2 -10 -6 -1 -3 10 -8 9 -20 -3 -8 -8 -17 -13 -20 -10 -3 2 0 109 6 238 6 128
14 310 18 403 4 99 10 157 14 140 l7 -30 1 30 c1 17 10 170 21 340 11 171 20
327 20 348 0 20 2 37 5 37 3 0 3 -233 0 -517z m-8344 460 c-12 -20 -14 -14 -5
12 4 9 9 14 11 11 3 -2 0 -13 -6 -23z m7076 5 c-3 -8 -6 -5 -6 6 -1 11 2 17 5
13 3 -3 4 -12 1 -19z m1240 -25 c-3 -10 -5 -2 -5 17 0 19 2 27 5 18 2 -10 2
-26 0 -35z m2350 -30 c-3 -10 -5 -2 -5 17 0 19 2 27 5 18 2 -10 2 -26 0 -35z
m3160 25 c-3 -8 -6 -5 -6 6 -1 11 2 17 5 13 3 -3 4 -12 1 -19z m-13845 -30
c-8 -8 -9 -4 -5 13 4 13 8 18 11 10 2 -7 -1 -18 -6 -23z m7155 10 c-3 -8 -6
-5 -6 6 -1 11 2 17 5 13 3 -3 4 -12 1 -19z m4540 -20 c-3 -8 -6 -5 -6 6 -1 11
2 17 5 13 3 -3 4 -12 1 -19z m-7020 -10 c-3 -8 -6 -5 -6 6 -1 11 2 17 5 13 3
-3 4 -12 1 -19z m3720 -15 c-3 -10 -5 -4 -5 12 0 17 2 24 5 18 2 -7 2 -21 0
-30z m2230 -20 c-3 -10 -5 -2 -5 17 0 19 2 27 5 18 2 -10 2 -26 0 -35z m2100
-5 c-3 -8 -6 -5 -6 6 -1 11 2 17 5 13 3 -3 4 -12 1 -19z m-12756 -15 c-12 -20
-14 -14 -5 12 4 9 9 14 11 11 3 -2 0 -13 -6 -23z m4696 5 c-3 -8 -6 -5 -6 6
-1 11 2 17 5 13 3 -3 4 -12 1 -19z m7100 0 c-3 -8 -6 -5 -6 6 -1 11 2 17 5 13
3 -3 4 -12 1 -19z m-6672 -13 c-16 -8 -71 -29 -121 -48 -69 -25 -91 -30 -90
-19 2 8 11 19 21 24 13 8 16 7 11 -1 -11 -16 0 -14 99 24 91 35 135 46 80 20z
m2052 -17 c-3 -7 -5 -2 -5 12 0 14 2 19 5 13 2 -7 2 -19 0 -25z m4560 -20 c-3
-7 -5 -2 -5 12 0 14 2 19 5 13 2 -7 2 -19 0 -25z m-11751 -4 c-4 -9 -9 -15
-11 -12 -3 3 -3 13 1 22 4 9 9 15 11 12 3 -3 3 -13 -1 -22z m4701 4 c-3 -8 -6
-5 -6 6 -1 11 2 17 5 13 3 -3 4 -12 1 -19z m-2250 -10 c-3 -8 -6 -5 -6 6 -1
11 2 17 5 13 3 -3 4 -12 1 -19z m10330 -10 c-3 -8 -6 -5 -6 6 -1 11 2 17 5 13
3 -3 4 -12 1 -19z m-5660 -10 c-3 -8 -6 -5 -6 6 -1 11 2 17 5 13 3 -3 4 -12 1
-19z m1250 -55 c-2 -16 -4 -5 -4 22 0 28 2 40 4 28 2 -13 2 -35 0 -50z m2370
20 c-3 -10 -5 -2 -5 17 0 19 2 27 5 18 2 -10 2 -26 0 -35z m-6050 15 c-3 -8
-6 -5 -6 6 -1 11 2 17 5 13 3 -3 4 -12 1 -19z m164 -2 c-6 -7 -8 -16 -4 -20 4
-4 0 -4 -8 -1 -9 3 -22 -1 -29 -10 -10 -12 -10 -15 0 -15 8 0 10 -3 7 -6 -4
-4 -13 -1 -22 6 -9 7 -26 10 -42 6 -22 -5 -20 -2 11 14 22 11 46 20 53 20 8 0
11 4 8 10 -4 6 1 7 11 3 13 -5 15 -3 9 7 -5 9 -4 11 4 6 8 -6 9 -12 2 -20z
m6966 -13 c-3 -10 -5 -4 -5 12 0 17 2 24 5 18 2 -7 2 -21 0 -30z m2110 -5 c-3
-8 -6 -5 -6 6 -1 11 2 17 5 13 3 -3 4 -12 1 -19z m-11503 -22 c-3 -15 -8 -25
-11 -23 -2 3 -1 17 3 31 3 15 8 25 11 23 2 -3 1 -17 -3 -31z m4753 12 c-3 -8
-6 -5 -6 6 -1 11 2 17 5 13 3 -3 4 -12 1 -19z m5610 -10 c-3 -7 -5 -2 -5 12 0
14 2 19 5 13 2 -7 2 -19 0 -25z m-1030 -15 c-3 -10 -5 -4 -5 12 0 17 2 24 5
18 2 -7 2 -21 0 -30z m-1080 -35 c-2 -13 -4 -3 -4 22 0 25 2 35 4 23 2 -13 2
-33 0 -45z m-2250 -10 c-2 -13 -4 -3 -4 22 0 25 2 35 4 23 2 -13 2 -33 0 -45z
m5510 30 c-3 -7 -5 -2 -5 12 0 14 2 19 5 13 2 -7 2 -19 0 -25z m-6830 -20 c-3
-8 -6 -5 -6 6 -1 11 2 17 5 13 3 -3 4 -12 1 -19z m-4712 -53 c-9 -31 -19 -55
-21 -53 -2 3 4 30 13 61 9 32 18 56 20 53 2 -2 -3 -29 -12 -61z m2220 40 c-16
-7 -41 -16 -55 -20 -22 -7 -23 -6 -12 8 13 16 38 24 77 25 14 0 12 -3 -10 -13z
m7212 -17 c-3 -7 -5 -2 -5 12 0 14 2 19 5 13 2 -7 2 -19 0 -25z m970 0 c-3 -8
-6 -5 -6 6 -1 11 2 17 5 13 3 -3 4 -12 1 -19z m-5630 -20 c-3 -8 -6 -5 -6 6
-1 11 2 17 5 13 3 -3 4 -12 1 -19z m4600 -20 c-3 -7 -5 -2 -5 12 0 14 2 19 5
13 2 -7 2 -19 0 -25z m-7357 1 c-12 -8 -10 -10 9 -5 51 11 -5 -24 -109 -70
-70 -30 -113 -43 -128 -39 -14 3 -21 2 -18 -4 6 -9 -21 -26 -36 -23 -16 4 -87
-30 -92 -44 -3 -7 -16 -13 -28 -13 -13 1 -50 -11 -83 -25 -33 -14 -68 -26 -77
-26 -9 0 -20 -4 -23 -10 -8 -14 -84 -32 -103 -25 -23 8 -3 23 38 28 33 5 177
60 189 74 3 3 -7 3 -24 -1 -48 -12 -26 0 73 38 74 28 97 33 118 26 30 -12 40
-13 30 -3 -3 4 4 13 16 20 15 8 18 12 8 13 -13 0 -13 1 0 10 8 5 20 10 25 10
6 0 3 -5 -5 -10 -30 -19 10 -9 97 25 48 19 81 35 73 35 -8 1 -1 8 15 15 36 17
56 19 35 4z m2687 -56 c-3 -10 -5 -2 -5 17 0 19 2 27 5 18 2 -10 2 -26 0 -35z
m3650 0 c-3 -10 -5 -2 -5 17 0 19 2 27 5 18 2 -10 2 -26 0 -35z m-60 15 c-3
-8 -6 -5 -6 6 -1 11 2 17 5 13 3 -3 4 -12 1 -19z m-6417 -8 c-8 -5 -19 -10
-25 -10 -5 0 -3 5 5 10 8 5 20 10 25 10 6 0 3 -5 -5 -10z m2887 -37 c-3 -10
-5 -2 -5 17 0 19 2 27 5 18 2 -10 2 -26 0 -35z m1200 -15 c-2 -13 -4 -3 -4 22
0 25 2 35 4 23 2 -13 2 -33 0 -45z m2330 -25 c-2 -16 -4 -5 -4 22 0 28 2 40 4
28 2 -13 2 -35 0 -50z m1090 20 c-3 -10 -5 -4 -5 12 0 17 2 24 5 18 2 -7 2
-21 0 -30z m-11549 -45 c-2 -40 -7 -73 -13 -73 -5 0 -11 33 -13 73 -2 60 0 72
13 72 13 0 15 -12 13 -72z m1352 52 c0 -15 7 -20 25 -20 30 0 47 -29 43 -73
-5 -50 -32 -42 -36 11 -4 53 -25 52 -32 -2 -9 -63 -25 -45 -28 32 -2 59 0 72
13 72 8 0 15 -9 15 -20z m364 -2 c20 -28 21 -78 3 -103 -10 -12 -28 -18 -58
-19 l-44 -1 -3 73 -3 72 45 0 c35 0 48 -5 60 -22z m-1354 -2 c0 -23 29 -27 40
-6 12 23 30 26 30 6 0 -8 6 -16 13 -19 10 -4 10 -7 0 -18 -7 -7 -13 -23 -13
-35 0 -12 6 -24 13 -27 9 -3 9 -7 0 -17 -20 -21 -42 -4 -45 37 -2 26 -8 38
-18 38 -19 0 -26 -45 -8 -56 17 -11 -4 -34 -25 -26 -17 7 -29 95 -16 119 12
21 29 24 29 4z m540 0 c0 -8 6 -16 13 -19 10 -4 10 -7 0 -18 -7 -7 -13 -23
-13 -35 0 -12 6 -24 13 -27 9 -3 9 -7 0 -17 -21 -23 -40 -4 -46 47 -5 47 5 83
23 83 6 0 10 -6 10 -14z m130 0 c0 -8 6 -16 13 -19 10 -4 10 -7 0 -18 -7 -7
-13 -23 -13 -35 0 -12 6 -24 13 -27 9 -3 9 -7 0 -17 -21 -23 -40 -4 -46 47 -5
47 5 83 23 83 6 0 10 -6 10 -14z m250 0 c0 -8 6 -16 13 -19 10 -4 10 -7 0 -18
-7 -7 -13 -23 -13 -35 0 -12 6 -24 13 -27 9 -3 9 -7 0 -17 -21 -23 -40 -4 -46
47 -5 47 5 83 23 83 6 0 10 -6 10 -14z m2630 4 c-8 -5 -19 -10 -25 -10 -5 0
-3 5 5 10 8 5 20 10 25 10 6 0 3 -5 -5 -10z m477 -5 c2 -1 -1754 -685 -1909
-744 -5 -2 -8 7 -6 20 3 20 99 60 923 380 768 298 926 356 955 352 19 -3 36
-6 37 -8z m3800 -67 c-2 -18 -4 -6 -4 27 0 33 2 48 4 33 2 -15 2 -42 0 -60z
m-7999 -1 c5 -75 -28 -112 -82 -91 -9 3 -16 13 -16 21 0 11 7 13 30 8 20 -4
30 -3 30 5 0 7 -6 10 -14 7 -20 -8 -56 21 -56 44 0 44 19 60 63 57 l42 -3 3
-48z m110 41 c28 -28 1 -98 -37 -98 -50 0 -79 61 -45 94 18 19 65 21 82 4z
m252 -8 c6 -12 10 -35 8 -52 -3 -29 -6 -32 -42 -32 -46 -1 -68 22 -47 48 8 9
22 16 32 16 11 0 19 5 19 10 0 6 -11 8 -25 4 -14 -3 -25 -2 -25 3 0 30 64 32
80 3z m188 -33 c5 -75 -28 -112 -82 -91 -9 3 -16 13 -16 21 0 11 7 13 30 8 20
-4 30 -3 30 5 0 7 -6 10 -14 7 -20 -8 -56 21 -56 44 0 44 19 60 63 57 l42 -3
3 -48z m102 34 c16 -32 12 -41 -20 -41 -16 0 -30 -5 -30 -11 0 -7 10 -9 25 -5
18 5 25 2 25 -8 0 -14 -21 -26 -45 -26 -37 0 -61 70 -33 98 19 19 66 15 78 -7z
m318 7 c28 -28 1 -98 -37 -98 -50 0 -79 61 -45 94 18 19 65 21 82 4z m362 -7
c16 -32 12 -41 -20 -41 -16 0 -30 -5 -30 -11 0 -7 10 -9 25 -5 18 5 25 2 25
-8 0 -14 -21 -26 -45 -26 -37 0 -61 70 -33 98 19 19 66 15 78 -7z m318 7 c28
-28 1 -98 -37 -98 -50 0 -79 61 -45 94 18 19 65 21 82 4z m120 0 c28 -28 1
-98 -37 -98 -50 0 -79 61 -45 94 18 19 65 21 82 4z m92 2 c0 -5 -6 -13 -14
-17 -8 -4 -16 -23 -18 -42 -2 -19 -9 -36 -15 -39 -9 -3 -13 12 -13 52 0 56 0
56 30 56 17 0 30 -4 30 -10z m110 -30 c0 -54 27 -56 32 -2 2 25 8 37 18 37 11
0 15 -12 15 -50 0 -49 -1 -50 -30 -51 -58 -3 -65 3 -65 57 0 37 4 49 15 49 11
0 15 -11 15 -40z m178 28 c31 -31 0 -105 -39 -95 -12 3 -19 -1 -21 -14 -2 -11
-7 -21 -13 -22 -6 -1 -11 29 -13 71 l-3 72 39 0 c21 0 43 -5 50 -12z m4579
-60 c-2 -13 -4 -5 -4 17 -1 22 1 32 4 23 2 -10 2 -28 0 -40z m1210 20 c-3 -7
-5 -2 -5 12 0 14 2 19 5 13 2 -7 2 -19 0 -25z m3430 0 c-3 -7 -5 -2 -5 12 0
14 2 19 5 13 2 -7 2 -19 0 -25z m-1090 -70 c-2 -13 -4 -3 -4 22 0 25 2 35 4
23 2 -13 2 -33 0 -45z m-3620 -10 c-3 -7 -5 -2 -5 12 0 14 2 19 5 13 2 -7 2
-19 0 -25z m-6402 -74 c22 -22 4 -40 -22 -23 -32 19 -53 5 -53 -36 0 -43 22
-55 51 -29 15 14 22 15 32 5 9 -10 7 -16 -12 -32 -13 -10 -32 -19 -43 -19 -25
0 -68 44 -68 70 0 24 18 61 34 72 19 13 64 9 81 -8z m303 -56 c-2 -40 -7 -73
-13 -73 -5 0 -11 33 -13 73 -2 60 0 72 13 72 13 0 15 -12 13 -72z m127 -3 l0
-68 -35 -2 c-58 -5 -86 36 -60 86 6 10 21 19 34 19 16 0 26 7 29 21 3 12 12
19 19 17 9 -3 13 -25 13 -73z m585 55 c0 -15 7 -20 25 -20 30 0 47 -29 43 -73
-5 -50 -32 -42 -36 11 -4 53 -25 52 -32 -2 -9 -63 -25 -45 -28 32 -2 59 0 72
13 72 8 0 15 -9 15 -20z m118 8 c-6 -18 -28 -21 -28 -4 0 9 7 16 16 16 9 0 14
-5 12 -12z m-1638 -12 c0 -8 6 -16 13 -19 10 -4 10 -7 0 -18 -7 -7 -13 -23
-13 -35 0 -12 6 -24 13 -27 9 -3 9 -7 0 -17 -21 -23 -40 -4 -46 47 -5 47 5 83
23 83 6 0 10 -6 10 -14z m1450 0 c0 -8 6 -16 13 -19 10 -4 10 -7 0 -18 -7 -7
-13 -23 -13 -35 0 -12 6 -24 13 -27 9 -3 9 -7 0 -17 -21 -23 -40 -4 -46 47 -5
47 5 83 23 83 6 0 10 -6 10 -14z m2015 4 c3 -6 -1 -7 -9 -4 -9 3 -16 1 -16 -6
0 -6 -4 -9 -9 -5 -5 3 -12 1 -15 -4 -4 -5 -49 -26 -101 -46 -52 -21 -98 -41
-101 -46 -3 -5 -10 -7 -15 -4 -5 4 -9 2 -9 -4 0 -6 -7 -7 -17 -4 -11 5 -14 3
-8 -6 6 -10 3 -11 -13 -2 -14 7 -23 8 -27 1 -4 -6 -11 -8 -16 -5 -5 4 -9 1 -9
-4 0 -6 -7 -11 -16 -11 -8 0 -12 -4 -9 -10 3 -5 0 -7 -9 -4 -16 6 -126 -40
-136 -56 -3 -6 -19 -12 -36 -14 -16 -2 -80 -22 -141 -45 -62 -22 -113 -38
-113 -35 0 4 -6 1 -13 -5 -8 -6 -32 -17 -55 -25 -35 -13 -42 -13 -42 -1 0 8
28 22 68 36 37 12 79 28 93 35 15 7 42 16 60 19 18 3 36 10 39 15 8 13 57 30
86 30 14 0 22 4 19 10 -4 6 1 7 10 3 11 -4 25 3 38 19 15 17 55 35 124 58 57
18 101 36 98 40 -3 5 3 6 13 3 10 -2 55 10 99 27 74 28 158 57 175 59 4 1 10
-3 13 -9z m-3337 -32 c28 -28 1 -98 -37 -98 -50 0 -79 61 -45 94 18 19 65 21
82 4z m120 0 c31 -31 0 -105 -39 -95 -12 3 -19 -1 -21 -14 -2 -11 -7 -21 -13
-22 -6 -1 -11 29 -13 71 l-3 72 39 0 c21 0 43 -5 50 -12z m380 0 c28 -28 1
-98 -37 -98 -50 0 -79 61 -45 94 18 19 65 21 82 4z m62 -28 c0 -54 27 -56 32
-2 2 25 8 37 18 37 11 0 15 -12 15 -50 0 -49 -1 -50 -30 -51 -58 -3 -65 3 -65
57 0 37 4 49 15 49 11 0 15 -11 15 -40z m360 0 c0 -54 27 -56 32 -2 2 25 8 37
18 37 11 0 15 -12 15 -50 0 -49 -1 -50 -30 -51 -58 -3 -65 3 -65 57 0 37 4 49
15 49 11 0 15 -11 15 -40z m168 21 c4 -11 -2 -12 -24 -7 -31 8 -28 0 8 -18 54
-27 8 -83 -47 -58 -37 17 -32 35 8 27 l32 -6 -32 20 c-36 23 -36 22 -27 46 8
20 75 17 82 -4z m112 0 c16 -32 12 -41 -20 -41 -16 0 -30 -5 -30 -11 0 -7 10
-9 25 -5 18 5 25 2 25 -8 0 -14 -21 -26 -45 -26 -37 0 -61 70 -33 98 19 19 66
15 78 -7z m308 -31 c-4 -67 -22 -69 -26 -2 -2 42 0 52 13 52 13 0 15 -10 13
-50z m110 31 c4 -11 -2 -12 -24 -7 -31 8 -28 0 8 -18 54 -27 8 -83 -47 -58
-37 17 -32 35 8 27 l32 -6 -32 20 c-36 23 -36 22 -27 46 8 20 75 17 82 -4z
m172 0 c16 -32 12 -41 -20 -41 -16 0 -30 -5 -30 -11 0 -7 10 -9 25 -5 18 5 25
2 25 -8 0 -14 -21 -26 -45 -26 -37 0 -61 70 -33 98 19 19 66 15 78 -7z m120
-1 c16 -29 9 -85 -10 -85 -11 0 -16 13 -18 43 -4 53 -25 52 -32 -2 -7 -55 -25
-48 -28 12 l-3 52 40 0 c30 0 43 -5 51 -20z m128 -33 c5 -75 -28 -112 -82 -91
-9 3 -16 13 -16 21 0 11 7 13 30 8 20 -4 30 -3 30 5 0 7 -6 10 -14 7 -20 -8
-56 21 -56 44 0 44 19 60 63 57 l42 -3 3 -48z m102 34 c16 -32 12 -41 -20 -41
-16 0 -30 -5 -30 -11 0 -7 10 -9 25 -5 18 5 25 2 25 -8 0 -14 -21 -26 -45 -26
-37 0 -61 70 -33 98 19 19 66 15 78 -7z m136 -6 c3 -14 10 -25 14 -25 4 0 11
11 14 25 4 14 13 25 21 25 20 0 19 -9 -6 -72 -25 -65 -41 -83 -66 -74 -17 7
-17 8 1 22 18 12 18 17 6 54 -7 23 -17 43 -21 46 -18 11 -38 -10 -41 -44 -5
-61 -28 -52 -28 12 l0 56 50 0 c45 0 50 -3 56 -25z m-2101 -75 c-5 -8 -11 -8
-17 -2 -6 6 -7 16 -3 22 5 8 11 8 17 2 6 -6 7 -16 3 -22z m160 -165 l0 -68
-35 -2 c-58 -5 -86 36 -60 86 6 10 21 19 34 19 16 0 26 7 29 21 3 12 12 19 19
17 9 -3 13 -25 13 -73z m133 63 c-6 -18 -28 -21 -28 -4 0 9 7 16 16 16 9 0 14
-5 12 -12z m182 -18 c0 -27 2 -29 20 -18 24 15 37 4 20 -17 -10 -12 -9 -20 5
-41 11 -18 14 -29 7 -36 -7 -7 -15 -3 -24 11 -16 27 -24 27 -31 0 -11 -42 -27
-6 -27 62 0 55 3 69 15 69 10 0 15 -10 15 -30z m750 20 c0 -5 -5 -10 -11 -10
-6 0 -8 -7 -5 -16 4 -9 2 -22 -3 -28 -5 -6 -11 -27 -13 -46 -4 -49 -22 -40
-30 16 -9 61 4 94 37 94 14 0 25 -4 25 -10z m-580 -14 c0 -8 6 -16 13 -19 10
-4 10 -7 0 -18 -7 -7 -13 -23 -13 -35 0 -12 6 -24 13 -27 9 -3 9 -7 0 -17 -21
-23 -40 -4 -46 47 -5 47 5 83 23 83 6 0 10 -6 10 -14z m840 0 c0 -8 6 -16 13
-19 10 -4 10 -7 0 -18 -7 -7 -13 -23 -13 -35 0 -12 6 -24 13 -27 9 -3 9 -7 0
-17 -21 -23 -40 -4 -46 47 -5 47 5 83 23 83 6 0 10 -6 10 -14z m-1240 -26 c0
-5 -6 -13 -14 -17 -8 -4 -16 -23 -18 -42 -2 -19 -9 -36 -15 -39 -9 -3 -13 12
-13 52 0 56 0 56 30 56 17 0 30 -4 30 -10z m48 -40 c-4 -67 -22 -69 -26 -2 -2
42 0 52 13 52 13 0 15 -10 13 -50z m122 30 c16 -29 9 -85 -10 -85 -11 0 -16
13 -18 43 -4 53 -25 52 -32 -2 -7 -55 -25 -48 -28 12 l-3 52 40 0 c30 0 43 -5
51 -20z m358 8 c28 -28 1 -98 -37 -98 -50 0 -79 61 -45 94 18 19 65 21 82 4z
m190 -41 c5 -75 -28 -112 -82 -91 -9 3 -16 13 -16 21 0 11 7 13 30 8 20 -4 30
-3 30 5 0 7 -6 10 -14 7 -20 -8 -56 21 -56 44 0 44 19 60 63 57 l42 -3 3 -48z
m110 41 c28 -28 1 -98 -37 -98 -50 0 -79 61 -45 94 18 19 65 21 82 4z m242 -8
c6 -12 10 -35 8 -52 -3 -29 -6 -32 -42 -32 -46 -1 -68 22 -47 48 8 9 22 16 32
16 11 0 19 5 19 10 0 6 -11 8 -25 4 -14 -3 -25 -2 -25 3 0 30 64 32 80 3z
m108 1 c4 -11 -2 -12 -24 -7 -31 8 -28 0 8 -18 54 -27 8 -83 -47 -58 -37 17
-32 35 8 27 l32 -6 -32 20 c-36 23 -36 22 -27 46 8 20 75 17 82 -4z m182 0
c16 -32 12 -41 -20 -41 -16 0 -30 -5 -30 -11 0 -7 10 -9 25 -5 18 5 25 2 25
-8 0 -14 -21 -26 -45 -26 -37 0 -61 70 -33 98 19 19 66 15 78 -7z m90 9 c0 -5
-6 -13 -14 -17 -8 -4 -16 -23 -18 -42 -2 -19 -9 -36 -15 -39 -9 -3 -13 12 -13
52 0 56 0 56 30 56 17 0 30 -4 30 -10z m45 -90 c-5 -8 -11 -8 -17 -2 -6 6 -7
16 -3 22 5 8 11 8 17 2 6 -6 7 -16 3 -22z m4782 -402 c-3 -8 -6 -5 -6 6 -1 11
2 17 5 13 3 -3 4 -12 1 -19z m5950 0 c-3 -8 -6 -5 -6 6 -1 11 2 17 5 13 3 -3
4 -12 1 -19z m-4570 -40 c-2 -13 -4 -5 -4 17 -1 22 1 32 4 23 2 -10 2 -28 0
-40z m5783 48 c0 -3 -4 -8 -10 -11 -5 -3 -10 -1 -10 4 0 6 5 11 10 11 6 0 10
-2 10 -4z m-3423 -93 c-3 -10 -5 -2 -5 17 0 19 2 27 5 18 2 -10 2 -26 0 -35z
m6943 -773 c0 -5 -9 -10 -20 -10 -11 0 -20 -4 -20 -10 0 -5 9 -10 20 -10 11 0
20 -4 20 -10 0 -5 -9 -10 -20 -10 -13 0 -20 -7 -20 -20 0 -11 -4 -20 -10 -20
-5 0 -10 23 -10 50 0 49 1 50 30 50 17 0 30 -4 30 -10z m290 -41 c0 -49 -1
-50 -27 -47 -23 2 -29 8 -31 36 -3 27 0 32 17 32 12 0 21 7 21 15 0 8 5 15 10
15 6 0 10 -23 10 -51z m290 41 c0 -5 -4 -10 -10 -10 -5 0 -10 5 -10 10 0 6 5
10 10 10 6 0 10 -4 10 -10z m250 -40 c0 -27 -4 -50 -10 -50 -5 0 -10 23 -10
50 0 28 5 50 10 50 6 0 10 -22 10 -50z m450 0 c0 -27 -4 -50 -10 -50 -5 0 -10
23 -10 50 0 28 5 50 10 50 6 0 10 -22 10 -50z m-745 26 c10 -10 11 -16 2 -25
-9 -9 -9 -16 1 -31 10 -17 10 -20 -7 -20 -14 0 -20 9 -24 33 -4 31 0 57 10 57
2 0 11 -6 18 -14z m-467 -38 c-2 -28 -7 -33 -28 -33 -21 0 -26 5 -28 33 -3 30
-1 32 28 32 29 0 31 -2 28 -32z m52 22 c0 -5 -4 -10 -10 -10 -5 0 -10 -11 -10
-25 0 -14 -4 -25 -10 -25 -5 0 -10 16 -10 35 0 28 4 35 20 35 11 0 20 -4 20
-10z m98 -28 c3 -31 2 -33 -25 -30 -24 2 -28 8 -31 36 -3 31 -2 33 25 30 24
-2 28 -8 31 -36z m102 13 c0 -14 5 -25 10 -25 6 0 10 11 10 25 0 14 5 25 10
25 6 0 10 -16 10 -35 0 -32 -2 -35 -30 -35 -28 0 -30 3 -30 35 0 19 5 35 10
35 6 0 10 -11 10 -25z m168 -12 l3 -33 -53 3 c-52 2 -53 3 -56 35 l-3 33 53
-3 c52 -3 53 -4 56 -35z m92 2 c0 -19 -4 -35 -10 -35 -5 0 -10 16 -10 35 0 19
5 35 10 35 6 0 10 -16 10 -35z m68 3 c-2 -28 -7 -33 -28 -33 -21 0 -26 5 -28
33 -3 30 -1 32 28 32 29 0 31 -2 28 -32z m82 -3 c0 -19 -4 -35 -10 -35 -5 0
-10 11 -10 25 0 14 -4 25 -10 25 -5 0 -10 -11 -10 -25 0 -14 -4 -25 -10 -25
-5 0 -10 16 -10 35 0 32 2 35 30 35 28 0 30 -3 30 -35z m60 0 c0 -31 -3 -35
-25 -35 -18 0 -25 5 -25 20 0 12 7 20 18 21 16 1 16 2 0 6 -27 7 -22 23 7 23
22 0 25 -4 25 -35z m110 10 c0 -14 5 -25 10 -25 6 0 10 11 10 25 0 14 5 25 10
25 6 0 10 -16 10 -35 0 -32 -2 -35 -30 -35 -28 0 -30 3 -30 35 0 19 5 35 10
35 6 0 10 -11 10 -25z m100 15 c0 -5 -8 -11 -17 -11 -17 -1 -17 -2 0 -6 25 -6
17 -37 -11 -41 -12 -2 -22 1 -22 7 0 6 8 12 18 12 16 1 16 2 0 6 -29 7 -23 43
7 43 14 0 25 -4 25 -10z m70 -26 c0 -33 -2 -35 -27 -32 -47 5 -45 68 2 68 22
0 25 -4 25 -36z m98 4 c-2 -28 -7 -33 -28 -33 -21 0 -26 5 -28 33 -3 30 -1 32
28 32 29 0 31 -2 28 -32z m72 -3 c0 -19 -4 -35 -10 -35 -5 0 -10 11 -10 25 0
14 -4 25 -10 25 -5 0 -10 -11 -10 -25 0 -14 -4 -25 -10 -25 -5 0 -10 16 -10
35 0 32 2 35 30 35 28 0 30 -3 30 -35z m80 13 l9 -23 0 23 c1 13 7 22 16 22
18 0 18 3 -1 -53 -9 -26 -20 -47 -26 -47 -5 0 -8 6 -5 13 2 6 -2 26 -10 44
-16 39 -16 43 -3 43 6 0 15 -10 20 -22z"/>
<path d="M16540 5959 c-30 -28 -41 -42 -25 -31 45 31 101 81 90 81 -5 0 -35
-22 -65 -50z"/>
<path d="M16289 5753 c-13 -16 -12 -17 4 -4 9 7 17 15 17 17 0 8 -8 3 -21 -13z"/>
<path d="M7405 3090 c10 -11 20 -20 23 -20 3 0 -3 9 -13 20 -10 11 -20 20 -23
20 -3 0 3 -9 13 -20z"/>
<path d="M7530 2975 c13 -14 26 -25 28 -25 3 0 -5 11 -18 25 -13 14 -26 25
-28 25 -3 0 5 -11 18 -25z"/>
<path d="M5835 2600 c-3 -6 1 -7 9 -4 18 7 21 14 7 14 -6 0 -13 -4 -16 -10z"/>
<path d="M5730 2560 c-8 -5 -10 -10 -5 -10 6 0 17 5 25 10 8 5 11 10 5 10 -5
0 -17 -5 -25 -10z"/>
<path d="M6100 2645 c-9 -10 -9 -15 -1 -15 6 0 11 4 11 10 0 5 7 6 17 3 11 -4
14 -3 9 5 -10 16 -21 15 -36 -3z"/>
<path d="M6008 2607 c-31 -13 -60 -26 -65 -31 -4 -4 23 4 61 18 67 26 90 37
70 35 -5 0 -35 -10 -66 -22z"/>
<path d="M5870 2550 c-8 -5 -10 -10 -5 -10 6 0 17 5 25 10 8 5 11 10 5 10 -5
0 -17 -5 -25 -10z"/>
<path d="M5250 2310 c-8 -5 -10 -10 -5 -10 6 0 17 5 25 10 8 5 11 10 5 10 -5
0 -17 -5 -25 -10z"/>
<path d="M4965 2205 c-110 -40 -169 -65 -163 -70 4 -4 258 92 267 101 9 9 -16
1 -104 -31z"/>
<path d="M4680 2090 c-9 -6 -10 -10 -3 -10 6 0 15 5 18 10 8 12 4 12 -15 0z"/>
<path d="M4500 2020 c-8 -5 -10 -10 -5 -10 6 0 17 5 25 10 8 5 11 10 5 10 -5
0 -17 -5 -25 -10z"/>
<path d="M4370 1970 c-9 -6 -10 -10 -3 -10 6 0 15 5 18 10 8 12 4 12 -15 0z"/>
<path d="M3620 1680 c-8 -5 -10 -10 -5 -10 6 0 17 5 25 10 8 5 11 10 5 10 -5
0 -17 -5 -25 -10z"/>
<path d="M3490 1630 c-9 -6 -10 -10 -3 -10 6 0 15 5 18 10 8 12 4 12 -15 0z"/>
<path d="M7252 1835 c0 -16 2 -22 5 -12 2 9 2 23 0 30 -3 6 -5 -1 -5 -18z"/>
<path d="M12982 1845 c0 -16 2 -22 5 -12 2 9 2 23 0 30 -3 6 -5 -1 -5 -18z"/>
<path d="M4318 2013 c6 -2 18 -2 25 0 6 3 1 5 -13 5 -14 0 -19 -2 -12 -5z"/>
<path d="M2000 1965 c0 -38 3 -45 20 -45 28 0 46 40 31 69 -7 11 -21 21 -31
21 -17 0 -20 -7 -20 -45z"/>
<path d="M481 1967 c-13 -17 -4 -50 13 -44 15 5 20 37 9 48 -6 6 -14 4 -22 -4z"/>
<path d="M601 1967 c-14 -17 -4 -47 15 -47 22 0 29 29 12 46 -13 13 -16 13
-27 1z"/>
<path d="M855 1930 c-3 -5 1 -10 9 -10 9 0 16 5 16 10 0 6 -4 10 -9 10 -6 0
-13 -4 -16 -10z"/>
<path d="M1031 1967 c-13 -17 -4 -50 13 -44 15 5 20 37 9 48 -6 6 -14 4 -22
-4z"/>
<path d="M1150 1970 c0 -5 7 -10 16 -10 8 0 12 5 9 10 -3 6 -10 10 -16 10 -5
0 -9 -4 -9 -10z"/>
<path d="M1461 1967 c-14 -17 -4 -47 15 -47 22 0 29 29 12 46 -13 13 -16 13
-27 1z"/>
<path d="M1830 1970 c0 -5 7 -10 16 -10 8 0 12 5 9 10 -3 6 -10 10 -16 10 -5
0 -9 -4 -9 -10z"/>
<path d="M2141 1967 c-14 -17 -4 -47 15 -47 22 0 29 29 12 46 -13 13 -16 13
-27 1z"/>
<path d="M2261 1967 c-14 -17 -4 -47 15 -47 22 0 29 29 12 46 -13 13 -16 13
-27 1z"/>
<path d="M2644 1966 c-8 -22 3 -49 19 -43 6 2 12 14 12 27 0 27 -22 39 -31 16z"/>
<path d="M1171 1736 c-14 -16 -4 -46 15 -46 8 0 14 10 14 24 0 30 -14 41 -29
22z"/>
<path d="M3645 1755 c-25 -12 -26 -14 -5 -9 28 7 60 23 45 23 -5 0 -23 -6 -40
-14z"/>
<path d="M371 1737 c-14 -17 -4 -47 15 -47 22 0 29 29 12 46 -13 13 -16 13
-27 1z"/>
<path d="M494 1736 c-8 -22 3 -49 19 -43 6 2 12 14 12 27 0 27 -22 39 -31 16z"/>
<path d="M871 1737 c-14 -17 -4 -47 15 -47 22 0 29 29 12 46 -13 13 -16 13
-27 1z"/>
<path d="M1580 1740 c0 -5 7 -10 16 -10 8 0 12 5 9 10 -3 6 -10 10 -16 10 -5
0 -9 -4 -9 -10z"/>
<path d="M2170 1740 c0 -5 7 -10 16 -10 8 0 12 5 9 10 -3 6 -10 10 -16 10 -5
0 -9 -4 -9 -10z"/>
<path d="M2401 1737 c-13 -17 -4 -50 13 -44 15 5 20 37 9 48 -6 6 -14 4 -22
-4z"/>
<path d="M2520 1740 c0 -5 7 -10 16 -10 8 0 12 5 9 10 -3 6 -10 10 -16 10 -5
0 -9 -4 -9 -10z"/>
<path d="M701 1506 c-14 -16 -4 -46 15 -46 8 0 14 10 14 24 0 30 -14 41 -29
22z"/>
<path d="M1321 1507 c-14 -17 -4 -47 15 -47 22 0 29 29 12 46 -13 13 -16 13
-27 1z"/>
<path d="M1501 1507 c-13 -17 -4 -50 13 -44 15 5 20 37 9 48 -6 6 -14 4 -22
-4z"/>
<path d="M1621 1507 c-14 -17 -4 -47 15 -47 22 0 29 29 12 46 -13 13 -16 13
-27 1z"/>
<path d="M1865 1470 c-3 -5 1 -10 9 -10 9 0 16 5 16 10 0 6 -4 10 -9 10 -6 0
-13 -4 -16 -10z"/>
<path d="M2160 1510 c0 -5 7 -10 16 -10 8 0 12 5 9 10 -3 6 -10 10 -16 10 -5
0 -9 -4 -9 -10z"/>
<path d="M18060 125 c0 -8 5 -15 10 -15 6 0 10 7 10 15 0 8 -4 15 -10 15 -5 0
-10 -7 -10 -15z"/>
<path d="M17840 125 c0 -8 5 -15 10 -15 6 0 10 7 10 15 0 8 -4 15 -10 15 -5 0
-10 -7 -10 -15z"/>
<path d="M18210 125 c0 -19 10 -19 46 0 l29 15 -37 0 c-27 0 -38 -4 -38 -15z"/>
<path d="M18420 125 c0 -8 5 -15 10 -15 6 0 10 7 10 15 0 8 -4 15 -10 15 -5 0
-10 -7 -10 -15z"/>
<path d="M18940 125 c0 -8 5 -15 10 -15 6 0 10 7 10 15 0 8 -4 15 -10 15 -5 0
-10 -7 -10 -15z"/>
<path d="M8825 10750 c-3 -5 3 -10 14 -10 19 0 21 -6 21 -60 0 -33 4 -60 10
-60 6 0 10 27 10 60 0 53 2 60 20 60 11 0 20 5 20 10 0 6 -20 10 -44 10 -25 0
-48 -4 -51 -10z"/>
<path d="M9333 10690 c0 -41 2 -58 4 -37 2 20 2 54 0 75 -2 20 -4 3 -4 -38z"/>
<path d="M9482 10741 c-4 -11 -5 -44 -2 -73 3 -43 5 -47 8 -18 1 19 6 42 9 50
3 8 5 21 4 29 -1 8 3 18 11 22 10 7 9 9 -5 9 -10 0 -21 -9 -25 -19z"/>
<path d="M9837 10742 c-32 -36 -14 -72 35 -72 26 0 28 -2 18 -20 -11 -21 -45
-27 -53 -10 -3 6 -4 5 -3 -2 3 -18 44 -22 62 -8 8 8 14 30 14 56 0 33 -5 46
-22 58 -28 20 -31 20 -51 -2z m51 -31 c-2 -18 -9 -26 -23 -26 -23 0 -32 30
-15 50 18 21 42 7 38 -24z"/>
<path d="M10009 10740 c-13 -10 -20 -19 -16 -20 5 0 15 7 24 15 19 20 37 14
41 -12 2 -14 -10 -34 -32 -57 -20 -19 -36 -38 -36 -41 0 -3 21 -4 48 -3 36 1
39 2 15 5 -41 5 -41 12 -3 48 35 33 38 60 11 75 -26 13 -25 13 -52 -10z"/>
<path d="M10120 10740 c-22 -22 -26 -70 -10 -101 12 -21 50 -25 68 -7 19 19
15 92 -6 111 -24 22 -28 21 -52 -3z m55 -29 c8 -38 -10 -83 -33 -79 -21 4 -30
82 -12 103 16 20 38 8 45 -24z"/>
<path d="M10243 10718 c-41 -57 -41 -68 -4 -68 20 0 31 -6 34 -17 4 -17 5 -17
6 0 0 9 6 17 12 17 8 0 8 4 1 13 -6 7 -12 33 -14 57 l-3 45 -32 -47z m27 -23
c0 -24 -24 -44 -37 -31 -8 7 17 56 29 56 4 0 8 -11 8 -25z"/>
<path d="M10345 10746 c-12 -9 -16 -20 -12 -36 3 -12 1 -30 -6 -40 -16 -27 8
-52 47 -48 24 2 32 8 34 27 2 13 -1 28 -7 34 -6 6 -7 16 -1 28 7 13 6 22 -6
33 -19 19 -25 20 -49 2z m45 -22 c0 -19 -28 -30 -42 -16 -8 8 -8 15 1 26 14
17 41 10 41 -10z m-2 -51 c13 -26 4 -43 -24 -43 -39 0 -32 55 8 59 4 1 11 -7
16 -16z"/>
<path d="M9539 10736 c-2 -10 -2 -41 -1 -67 3 -37 8 -49 20 -49 12 0 13 3 4
12 -7 7 -12 24 -12 38 0 14 5 31 12 38 8 8 9 12 1 12 -6 0 -13 8 -15 18 -4 15
-5 15 -9 -2z"/>
<path d="M9748 10736 c-22 -16 -23 -27 -4 -20 12 4 16 -6 19 -48 3 -51 3 -50
5 15 1 37 1 67 0 67 -2 0 -11 -7 -20 -14z"/>
<path d="M8953 10670 c0 -30 2 -43 4 -27 2 15 2 39 0 55 -2 15 -4 2 -4 -28z"/>
<path d="M9008 10712 c-14 -3 -18 -13 -16 -50 1 -43 2 -44 5 -10 4 36 27 67
40 54 4 -3 10 -25 14 -49 l6 -42 2 36 c1 38 25 69 41 53 5 -5 11 -27 13 -49 3
-33 4 -31 3 10 l-1 50 -45 1 c-25 0 -53 -1 -62 -4z"/>
<path d="M9166 10704 c-19 -18 -21 -55 -4 -72 14 -14 64 -16 72 -3 3 5 -8 8
-25 7 -18 0 -34 5 -36 12 -3 8 7 12 31 12 28 0 36 4 36 18 0 39 -45 55 -74 26z
m52 -17 c2 -11 -3 -17 -17 -17 -23 0 -35 15 -26 31 10 15 39 6 43 -14z"/>
<path d="M9376 10704 c-19 -18 -21 -55 -4 -72 14 -14 64 -16 72 -3 3 5 -8 8
-25 7 -18 0 -34 5 -36 12 -3 8 7 12 31 12 28 0 36 4 36 18 0 39 -45 55 -74 26z
m52 -17 c2 -11 -3 -17 -17 -17 -23 0 -35 15 -26 31 10 15 39 6 43 -14z"/>
</g>
</svg>
